# xmcd
#
# Track frame offsets: 
#        150
#        28454
#        54484
#        77989
#        98717
#        121090
#        145412
#        174318
#        198349
#        226074
#        242124
#        259916
#        276596
#        302986
#
# Disc length: 4220 seconds
#
# Revision: 11
# Processed by: cddbd v1.5.2PL0 Copyright (c) Steve Scherf et al.
# Submitted via: ExactAudioCopyFreeDBPlugin 1.0
#
DISCID=c9107a0e
DTITLE=Keiko Lee - Voices - The Best of Keiko Lee
DYEAR=2002
DGENRE=Jazz
TTITLE0=Imagine
TTITLE1=Love Dance
TTITLE2=My Romance
TTITLE3=I Saw The Light
TTITLE4=Don't Explain
TTITLE5=Human Nature
TTITLE6=What A Wonderful World
TTITLE7=My Love
TTITLE8=New York State Of Mind
TTITLE9=Fly Me To The Moon (In Other Words)
TTITLE10=IF It's Love (2001 Version)
TTITLE11=Greatest Love Of All
TTITLE12=Distance
TTITLE13=We Will Rock You
EXTD=YEAR: 2002
EXTT0=
EXTT1=
EXTT2=
EXTT3=
EXTT4=
EXTT5=
EXTT6=
EXTT7=
EXTT8=
EXTT9=
EXTT10=
EXTT11=
EXTT12=
EXTT13=
PLAYORDER=
